<mxfile
  host="Electron" 
  agent="Mozilla/5.0 (Macintosh; Intel Mac OS X 10_15_7) AppleWebKit/537.36 (KHTML, like Gecko) draw.io/25.0.2 Chrome/128.0.6613.186 Electron/32.2.5 Safari/537.36" 
  version="25.0.2"
  >
  <diagram
    name="-"
    >
    <mxGraphModel
      grid="1" 
      gridSize="10" 
      guides="1" 
      tooltips="1" 
      connect="1" 
      arrows="1" 
      fold="1" 
      page="1" 
      pageScale="1" 
      pageWidth="1" 
      pageHeight="1" 
      math="0" 
      shadow="0"
      >
      <root>
        <mxCell
          id="page"
          />
        <mxCell
          id="root" 
          parent="page"
          />
        <mxCell
          style="verticalAlign=top;aspect=fixed;align=center;spacingLeft=5;spacingRight=5;spacingBottom=5;strokeColor=none;" 
          id="shape_" 
          parent="root" 
          value=" " 
          vertex="1"
          >
          <mxGeometry
            as="geometry" 
            width="150" 
            height="110" 
            x="0" 
            y="0"
            />
          </mxCell>
        <mxCell
          style="rounded=1;whiteSpace=wrap;verticalAlign=top;align=center;points=[[0,0.5,0],[0.19,0.02,0],[0.59,0,0],[0.985,0.02,0],[1,0.5,0],[0.985,0.98,0],[0.59,1,0],[0.19,0.98,0]];verticalLabelPosition=bottom;sketch=0;html=1;aspect=fixed;pointerEvents=1;shape=mxgraph.cisco19.camera;fillColor=#005073;strokeColor=none;" 
          id="camera_" 
          parent="shape_" 
          value=" " 
          vertex="1"
          >
          <mxGeometry
            width="90" 
            height="50" 
            as="geometry" 
            x="30" 
            y="30"
            />
          </mxCell>
        </root>
      </mxGraphModel>
    </diagram>
  </mxfile>